<svg xmlns="http://www.w3.org/2000/svg" xmlns:xlink="http://www.w3.org/1999/xlink" width="154" height="142" x="0px" y="0px" viewBox="0 0 154 142" style="transform: translate(0,0)"><rect x="0" y="0" width="154" height="142" style="fill: #ffffff" /><g transform="translate(10, 10)" style="fill: #000000;"><text x="0" y="122" text-anchor="start" style="font: 20px monospace">0</text></g><g transform="translate(26, 10)" style="fill: #000000;"><rect x="0" y="0" width="2" height="112" /><rect x="4" y="0" width="2" height="112" /><text x="3" y="134" text-anchor="middle" style="font: 20px monospace" /></g><g transform="translate(32, 10)" style="fill: #000000;"><rect x="4" y="0" width="6" height="100" /><rect x="12" y="0" width="2" height="100" /><rect x="18" y="0" width="2" height="100" /><rect x="24" y="0" width="4" height="100" /><rect x="30" y="0" width="6" height="100" /><rect x="40" y="0" width="2" height="100" /><rect x="46" y="0" width="4" height="100" /><rect x="52" y="0" width="4" height="100" /><rect x="58" y="0" width="2" height="100" /><rect x="62" y="0" width="8" height="100" /><rect x="74" y="0" width="4" height="100" /><rect x="82" y="0" width="2" height="100" /><text x="42" y="122" text-anchor="middle" style="font: 20px monospace">425261</text></g><g transform="translate(116, 10)" style="fill: #000000;"><rect x="2" y="0" width="2" height="112" /><rect x="6" y="0" width="2" height="112" /><rect x="10" y="0" width="2" height="112" /><text x="6" y="134" text-anchor="middle" style="font: 20px monospace" /></g><g transform="translate(128, 10)" style="fill: #000000;"><text x="15" y="122" text-anchor="end" style="font: 20px monospace">4</text></g></svg>