<svg xmlns="http://www.w3.org/2000/svg" xmlns:xlink="http://www.w3.org/1999/xlink" width="162" height="142" x="0px" y="0px" viewBox="0 0 162 142" style="transform: translate(0,0)"><rect x="0" y="0" width="162" height="142" style="fill: #ffffff" /><g transform="translate(10, 10)" style="fill: #000000;"><rect x="0" y="0" width="2" height="100" /><rect x="4" y="0" width="4" height="100" /><rect x="12" y="0" width="2" height="100" /><rect x="18" y="0" width="2" height="100" /><rect x="22" y="0" width="2" height="100" /><rect x="26" y="0" width="2" height="100" /><rect x="30" y="0" width="4" height="100" /><rect x="38" y="0" width="2" height="100" /><rect x="42" y="0" width="2" height="100" /><rect x="46" y="0" width="2" height="100" /><rect x="52" y="0" width="2" height="100" /><rect x="56" y="0" width="4" height="100" /><rect x="62" y="0" width="4" height="100" /><rect x="70" y="0" width="2" height="100" /><rect x="74" y="0" width="2" height="100" /><rect x="78" y="0" width="2" height="100" /><rect x="82" y="0" width="2" height="100" /><rect x="86" y="0" width="4" height="100" /><rect x="92" y="0" width="2" height="100" /><rect x="98" y="0" width="2" height="100" /><rect x="102" y="0" width="4" height="100" /><rect x="108" y="0" width="2" height="100" /><rect x="112" y="0" width="2" height="100" /><rect x="118" y="0" width="2" height="100" /><rect x="122" y="0" width="2" height="100" /><rect x="128" y="0" width="2" height="100" /><rect x="134" y="0" width="2" height="100" /><rect x="138" y="0" width="4" height="100" /><text x="71" y="122" text-anchor="middle" style="font: 20px monospace; fill: #000000">12345</text></g></svg>