<svg xmlns="http://www.w3.org/2000/svg" xmlns:xlink="http://www.w3.org/1999/xlink" width="238" height="142" x="0px" y="0px" viewBox="0 0 238 142" style="transform: translate(0,0)"><rect x="0" y="0" width="238" height="142" style="fill: #ffffff" /><g transform="translate(10, 10)" style="fill: #000000;"><rect x="0" y="0" width="2" height="100" /><rect x="4" y="0" width="4" height="100" /><rect x="12" y="0" width="2" height="100" /><rect x="16" y="0" width="2" height="100" /><rect x="20" y="0" width="2" height="100" /><rect x="24" y="0" width="4" height="100" /><rect x="30" y="0" width="4" height="100" /><rect x="36" y="0" width="2" height="100" /><rect x="40" y="0" width="4" height="100" /><rect x="46" y="0" width="2" height="100" /><rect x="52" y="0" width="2" height="100" /><rect x="56" y="0" width="4" height="100" /><rect x="62" y="0" width="4" height="100" /><rect x="70" y="0" width="2" height="100" /><rect x="74" y="0" width="2" height="100" /><rect x="78" y="0" width="2" height="100" /><rect x="82" y="0" width="4" height="100" /><rect x="88" y="0" width="4" height="100" /><rect x="94" y="0" width="2" height="100" /><rect x="98" y="0" width="4" height="100" /><rect x="104" y="0" width="2" height="100" /><rect x="108" y="0" width="4" height="100" /><rect x="114" y="0" width="4" height="100" /><rect x="120" y="0" width="2" height="100" /><rect x="124" y="0" width="2" height="100" /><rect x="130" y="0" width="4" height="100" /><rect x="136" y="0" width="2" height="100" /><rect x="140" y="0" width="2" height="100" /><rect x="144" y="0" width="2" height="100" /><rect x="150" y="0" width="4" height="100" /><rect x="156" y="0" width="4" height="100" /><rect x="162" y="0" width="2" height="100" /><rect x="168" y="0" width="2" height="100" /><rect x="172" y="0" width="2" height="100" /><rect x="176" y="0" width="4" height="100" /><rect x="182" y="0" width="4" height="100" /><rect x="188" y="0" width="4" height="100" /><rect x="194" y="0" width="2" height="100" /><rect x="198" y="0" width="4" height="100" /><rect x="204" y="0" width="2" height="100" /><rect x="208" y="0" width="4" height="100" /><rect x="216" y="0" width="2" height="100" /><text x="109" y="122" text-anchor="middle" style="font: 20px monospace; fill: #000000">01234-5678</text></g></svg>