<svg xmlns="http://www.w3.org/2000/svg" xmlns:xlink="http://www.w3.org/1999/xlink" width="202" height="142" x="0px" y="0px" viewBox="0 0 202 142" style="transform: translate(0,0)"><rect x="0" y="0" width="202" height="142" style="fill: #ffffff" /><g transform="translate(10, 10)" style="fill: #000000;"><rect x="0" y="0" width="2" height="100" /><rect x="4" y="0" width="2" height="100" /><rect x="8" y="0" width="8" height="100" /><rect x="18" y="0" width="4" height="100" /><rect x="24" y="0" width="2" height="100" /><rect x="30" y="0" width="4" height="100" /><rect x="36" y="0" width="4" height="100" /><rect x="44" y="0" width="2" height="100" /><rect x="50" y="0" width="2" height="100" /><rect x="54" y="0" width="4" height="100" /><rect x="60" y="0" width="2" height="100" /><rect x="64" y="0" width="4" height="100" /><rect x="72" y="0" width="4" height="100" /><rect x="78" y="0" width="2" height="100" /><rect x="84" y="0" width="4" height="100" /><rect x="90" y="0" width="2" height="100" /><rect x="100" y="0" width="2" height="100" /><rect x="104" y="0" width="2" height="100" /><rect x="108" y="0" width="2" height="100" /><rect x="112" y="0" width="2" height="100" /><rect x="122" y="0" width="2" height="100" /><rect x="126" y="0" width="2" height="100" /><rect x="130" y="0" width="6" height="100" /><rect x="138" y="0" width="4" height="100" /><rect x="144" y="0" width="2" height="100" /><rect x="150" y="0" width="2" height="100" /><rect x="158" y="0" width="2" height="100" /><rect x="162" y="0" width="2" height="100" /><rect x="166" y="0" width="2" height="100" /><rect x="170" y="0" width="8" height="100" /><rect x="180" y="0" width="2" height="100" /><text x="91" y="122" text-anchor="middle" style="font: 20px monospace; fill: #000000">TEST93</text></g></svg>