<svg xmlns="http://www.w3.org/2000/svg" xmlns:xlink="http://www.w3.org/1999/xlink" width="210" height="142" x="0px" y="0px" viewBox="0 0 210 142" style="transform: translate(0,0)"><rect x="0" y="0" width="210" height="142" style="fill: #ffffff" /><g transform="translate(10, 10)" style="fill: #000000;"><rect x="0" y="0" width="2" height="100" /><rect x="8" y="0" width="2" height="100" /><rect x="12" y="0" width="6" height="100" /><rect x="20" y="0" width="6" height="100" /><rect x="28" y="0" width="2" height="100" /><rect x="32" y="0" width="6" height="100" /><rect x="40" y="0" width="2" height="100" /><rect x="44" y="0" width="2" height="100" /><rect x="52" y="0" width="2" height="100" /><rect x="56" y="0" width="6" height="100" /><rect x="64" y="0" width="2" height="100" /><rect x="68" y="0" width="6" height="100" /><rect x="76" y="0" width="2" height="100" /><rect x="84" y="0" width="2" height="100" /><rect x="88" y="0" width="6" height="100" /><rect x="96" y="0" width="6" height="100" /><rect x="104" y="0" width="2" height="100" /><rect x="112" y="0" width="2" height="100" /><rect x="116" y="0" width="2" height="100" /><rect x="120" y="0" width="6" height="100" /><rect x="128" y="0" width="2" height="100" /><rect x="132" y="0" width="6" height="100" /><rect x="144" y="0" width="2" height="100" /><rect x="148" y="0" width="2" height="100" /><rect x="152" y="0" width="6" height="100" /><rect x="160" y="0" width="2" height="100" /><rect x="168" y="0" width="2" height="100" /><rect x="172" y="0" width="6" height="100" /><rect x="180" y="0" width="6" height="100" /><rect x="188" y="0" width="2" height="100" /><text x="95" y="122" text-anchor="middle" style="font: 20px monospace; fill: #000000">AB12</text></g></svg>