<svg xmlns="http://www.w3.org/2000/svg" xmlns:xlink="http://www.w3.org/1999/xlink" width="248" height="142" x="0px" y="0px" viewBox="0 0 248 142" style="transform: translate(0,0)"><rect x="0" y="0" width="248" height="142" style="fill: #ffffff" /><g transform="translate(10, 10)" style="fill: #000000;"><text x="0" y="122" text-anchor="start" style="font: 20px monospace; fill: #000000">5</text></g><g transform="translate(34, 10)" style="fill: #000000;"><rect x="0" y="0" width="2" height="112" /><rect x="4" y="0" width="2" height="112" /><text x="3" y="134" text-anchor="middle" style="font: 20px monospace; fill: #000000" /></g><g transform="translate(40, 10)" style="fill: #000000;"><rect x="6" y="0" width="2" height="100" /><rect x="10" y="0" width="4" height="100" /><rect x="16" y="0" width="2" height="100" /><rect x="22" y="0" width="6" height="100" /><rect x="30" y="0" width="4" height="100" /><rect x="38" y="0" width="4" height="100" /><rect x="46" y="0" width="2" height="100" /><rect x="52" y="0" width="4" height="100" /><rect x="58" y="0" width="8" height="100" /><rect x="68" y="0" width="2" height="100" /><rect x="74" y="0" width="6" height="100" /><rect x="82" y="0" width="2" height="100" /><text x="42" y="122" text-anchor="middle" style="font: 20px monospace; fill: #000000">901234</text></g><g transform="translate(124, 10)" style="fill: #000000;"><rect x="2" y="0" width="2" height="112" /><rect x="6" y="0" width="2" height="112" /><text x="5" y="134" text-anchor="middle" style="font: 20px monospace; fill: #000000" /></g><g transform="translate(134, 10)" style="fill: #000000;"><rect x="0" y="0" width="4" height="100" /><rect x="8" y="0" width="4" height="100" /><rect x="14" y="0" width="4" height="100" /><rect x="20" y="0" width="4" height="100" /><rect x="28" y="0" width="2" height="100" /><rect x="38" y="0" width="2" height="100" /><rect x="42" y="0" width="2" height="100" /><rect x="46" y="0" width="6" height="100" /><rect x="56" y="0" width="2" height="100" /><rect x="62" y="0" width="6" height="100" /><rect x="70" y="0" width="2" height="100" /><rect x="78" y="0" width="2" height="100" /><text x="42" y="122" text-anchor="middle" style="font: 20px monospace; fill: #000000">123457</text></g><g transform="translate(218, 10)" style="fill: #000000;"><rect x="0" y="0" width="2" height="112" /><rect x="4" y="0" width="2" height="112" /><text x="3" y="134" text-anchor="middle" style="font: 20px monospace; fill: #000000" /></g><g transform="translate(224, 10)" style="fill: #000000;"><text x="2" y="122" text-anchor="middle" style="font: 20px monospace; fill: #000000" /></g><g transform="translate(228, 10)" style="fill: #000000;"><text x="5" y="122" text-anchor="middle" style="font: 20px monospace; fill: #000000">&gt;</text></g></svg>