<svg xmlns="http://www.w3.org/2000/svg" xmlns:xlink="http://www.w3.org/1999/xlink" width="210" height="142" x="0px" y="0px" viewBox="0 0 210 142" style="transform: translate(0,0)"><rect x="0" y="0" width="210" height="142" style="fill: #ffffff" /><g transform="translate(10, 10)" style="fill: #000000;"><rect x="0" y="0" width="2" height="100" /><rect x="4" y="0" width="2" height="100" /><rect x="12" y="0" width="2" height="100" /><rect x="16" y="0" width="4" height="100" /><rect x="22" y="0" width="2" height="100" /><rect x="28" y="0" width="6" height="100" /><rect x="36" y="0" width="4" height="100" /><rect x="44" y="0" width="4" height="100" /><rect x="52" y="0" width="2" height="100" /><rect x="58" y="0" width="4" height="100" /><rect x="64" y="0" width="8" height="100" /><rect x="74" y="0" width="2" height="100" /><rect x="80" y="0" width="6" height="100" /><rect x="88" y="0" width="2" height="100" /><rect x="92" y="0" width="2" height="100" /><rect x="96" y="0" width="2" height="100" /><rect x="100" y="0" width="4" height="100" /><rect x="108" y="0" width="4" height="100" /><rect x="114" y="0" width="4" height="100" /><rect x="120" y="0" width="4" height="100" /><rect x="128" y="0" width="2" height="100" /><rect x="138" y="0" width="2" height="100" /><rect x="142" y="0" width="2" height="100" /><rect x="146" y="0" width="6" height="100" /><rect x="156" y="0" width="2" height="100" /><rect x="162" y="0" width="6" height="100" /><rect x="170" y="0" width="2" height="100" /><rect x="178" y="0" width="2" height="100" /><rect x="184" y="0" width="2" height="100" /><rect x="188" y="0" width="2" height="100" /><text x="95" y="122" text-anchor="middle" style="font: 20px monospace; fill: #000000">5901234123457</text></g></svg>