<svg xmlns="http://www.w3.org/2000/svg" xmlns:xlink="http://www.w3.org/1999/xlink" width="114" height="142" x="0px" y="0px" viewBox="0 0 114 142" style="transform: translate(0,0)"><rect x="0" y="0" width="114" height="142" style="fill: #ffffff" /><g transform="translate(10, 10)" style="fill: #000000;"><rect x="0" y="0" width="2" height="100" /><rect x="4" y="0" width="4" height="100" /><rect x="10" y="0" width="6" height="100" /><rect x="20" y="0" width="2" height="100" /><rect x="24" y="0" width="2" height="100" /><rect x="30" y="0" width="2" height="100" /><rect x="36" y="0" width="4" height="100" /><rect x="42" y="0" width="2" height="100" /><rect x="48" y="0" width="6" height="100" /><rect x="56" y="0" width="2" height="100" /><rect x="60" y="0" width="2" height="100" /><rect x="68" y="0" width="2" height="100" /><rect x="72" y="0" width="4" height="100" /><rect x="78" y="0" width="2" height="100" /><rect x="82" y="0" width="4" height="100" /><rect x="92" y="0" width="2" height="100" /><text x="47" y="122" text-anchor="middle" style="font: 20px monospace; fill: #000000">52495</text></g></svg>