<svg xmlns="http://www.w3.org/2000/svg" xmlns:xlink="http://www.w3.org/1999/xlink" width="290" height="142" x="0px" y="0px" viewBox="0 0 290 142" style="transform: translate(0,0)"><rect x="0" y="0" width="290" height="142" style="fill: #ffffff" /><g transform="translate(10, 10)" style="fill: #000000;"><rect x="0" y="0" width="2" height="100" /><rect x="4" y="0" width="2" height="100" /><rect x="8" y="0" width="2" height="100" /><rect x="16" y="0" width="6" height="100" /><rect x="24" y="0" width="2" height="100" /><rect x="28" y="0" width="6" height="100" /><rect x="40" y="0" width="2" height="100" /><rect x="44" y="0" width="2" height="100" /><rect x="48" y="0" width="2" height="100" /><rect x="56" y="0" width="2" height="100" /><rect x="64" y="0" width="6" height="100" /><rect x="72" y="0" width="6" height="100" /><rect x="80" y="0" width="6" height="100" /><rect x="88" y="0" width="2" height="100" /><rect x="92" y="0" width="6" height="100" /><rect x="104" y="0" width="2" height="100" /><rect x="108" y="0" width="2" height="100" /><rect x="116" y="0" width="6" height="100" /><rect x="124" y="0" width="6" height="100" /><rect x="136" y="0" width="2" height="100" /><rect x="140" y="0" width="2" height="100" /><rect x="144" y="0" width="2" height="100" /><rect x="152" y="0" width="6" height="100" /><rect x="160" y="0" width="2" height="100" /><rect x="164" y="0" width="2" height="100" /><rect x="172" y="0" width="2" height="100" /><rect x="180" y="0" width="6" height="100" /><rect x="188" y="0" width="2" height="100" /><rect x="192" y="0" width="6" height="100" /><rect x="204" y="0" width="2" height="100" /><rect x="208" y="0" width="6" height="100" /><rect x="216" y="0" width="2" height="100" /><rect x="224" y="0" width="6" height="100" /><rect x="236" y="0" width="2" height="100" /><rect x="244" y="0" width="2" height="100" /><rect x="248" y="0" width="2" height="100" /><rect x="252" y="0" width="6" height="100" /><rect x="260" y="0" width="6" height="100" /><rect x="268" y="0" width="2" height="100" /><text x="135" y="122" text-anchor="middle" style="font: 20px monospace; fill: #000000">98765432109213</text></g></svg>