<svg xmlns="http://www.w3.org/2000/svg" xmlns:xlink="http://www.w3.org/1999/xlink" width="130" height="142" x="0px" y="0px" viewBox="0 0 130 142" style="transform: translate(0,0)"><rect x="0" y="0" width="130" height="142" style="fill: #ffffff" /><g transform="translate(10, 10)" style="fill: #000000;"><rect x="0" y="0" width="4" height="100" /><rect x="6" y="0" width="4" height="100" /><rect x="12" y="0" width="2" height="100" /><rect x="18" y="0" width="2" height="100" /><rect x="24" y="0" width="2" height="100" /><rect x="30" y="0" width="2" height="100" /><rect x="36" y="0" width="2" height="100" /><rect x="42" y="0" width="2" height="100" /><rect x="48" y="0" width="2" height="100" /><rect x="54" y="0" width="2" height="100" /><rect x="60" y="0" width="4" height="100" /><rect x="66" y="0" width="2" height="100" /><rect x="72" y="0" width="4" height="100" /><rect x="78" y="0" width="2" height="100" /><rect x="84" y="0" width="2" height="100" /><rect x="90" y="0" width="4" height="100" /><rect x="96" y="0" width="2" height="100" /><rect x="102" y="0" width="2" height="100" /><rect x="108" y="0" width="2" height="100" /><text x="55" y="122" text-anchor="middle" style="font: 20px monospace; fill: #000000">8052</text></g></svg>